<?xml version="1.0" encoding="UTF-8" standalone="no"?>
<!DOCTYPE svg PUBLIC "-//W3C//DTD SVG 1.1//EN" "http://www.w3.org/Graphics/SVG/1.1/DTD/svg11.dtd">
<svg width="100%" height="100%" viewBox="0 0 785 785" version="1.1" xmlns="http://www.w3.org/2000/svg" xmlns:xlink="http://www.w3.org/1999/xlink" xml:space="preserve" xmlns:serif="http://www.serif.com/" style="fill-rule:evenodd;clip-rule:evenodd;stroke-linejoin:round;stroke-miterlimit:2;">
    <g transform="matrix(1,0,0,1,-9.5589,-3.76719)">
        <g id="Primary" transform="matrix(1,0,0,1,-877.954,-21.1204)">
            <rect x="887.513" y="24.888" width="784.337" height="784.337" style="fill:none;"/>
            <clipPath id="_clip1">
                <rect x="887.513" y="24.888" width="784.337" height="784.337"/>
            </clipPath>
            <g clip-path="url(#_clip1)">
                <g transform="matrix(1,0,0,1,877.954,21.1204)">
                    <rect x="2.661" y="-13.487" width="804.723" height="811.466"/>
                </g>
                <g transform="matrix(1.6472,2.11859,-2.1169,1.64588,1377.79,-1771.95)">
                    <path d="M634.954,449.322L646.802,496.627C647.358,498.849 648.934,500.677 651.051,501.554C653.168,502.43 655.575,502.253 657.54,501.075L699.367,476.003L674.295,517.83C673.117,519.795 672.94,522.202 673.816,524.319C674.693,526.436 676.521,528.012 678.743,528.569L726.048,540.416L678.743,552.264C676.521,552.821 674.693,554.397 673.816,556.514C672.94,558.63 673.117,561.037 674.295,563.002L699.367,604.829L657.54,579.757C655.575,578.58 653.168,578.402 651.051,579.279C648.934,580.155 647.358,581.983 646.802,584.205L634.954,631.51L623.106,584.205C622.549,581.983 620.973,580.155 618.856,579.279C616.74,578.402 614.333,578.58 612.368,579.757L570.541,604.829L595.613,563.002C596.791,561.037 596.968,558.63 596.091,556.514C595.215,554.397 593.387,552.821 591.165,552.264L543.86,540.416L591.165,528.569C593.387,528.012 595.215,526.436 596.091,524.319C596.968,522.202 596.791,519.795 595.613,517.83L570.541,476.003L612.368,501.075C614.333,502.253 616.74,502.43 618.856,501.554C620.973,500.677 622.549,498.849 623.106,496.627L634.954,449.322Z" style="fill:white;"/>
                </g>
            </g>
        </g>
    </g>
</svg>
